<!--?xml version="1.0" encoding="utf-8"?-->
<!-- Generator: Adobe Illustrator 15.1.0, SVG Export Plug-In . SVG Version: 6.00 Build 0)  -->

<svg version="1.1" id="_x32_" xmlns="http://www.w3.org/2000/svg" xmlns:xlink="http://www.w3.org/1999/xlink" x="0px" y="0px" width="512px" height="512px" viewBox="0 0 512 512" style="width: 256px; height: 256px; opacity: 1;" xml:space="preserve">
<style type="text/css">

	.st0{fill:#4B4B4B;}

</style>
<g>
	<path class="st0" d="M147.891,113.25c1.031,2.719,4.094,4.063,6.797,3l210.438-82.188c2.688-1.063,4.031-4.109,3-6.813
		c-1.063-2.703-4.109-4.031-6.813-3l-210.422,82.219C148.172,107.516,146.844,110.563,147.891,113.25z" style="fill: rgb(75, 75, 75);"></path>
	<path class="st0" d="M169.344,128.656c-21.719-1.031-36.234-7.359-46.438-13.75c-12.625-7.906-2.609-14.781,4.203-17.594
		C133.906,94.531,333.906,17.5,333.906,17.5v11.766l8.75-3.141V0L108.484,90.063c-2.875,1.094-4.766,3.875-4.766,6.953v9.328V475.25
		c0,0,10.5,34.125,65.625,36.75l238.938-91.906V36.75L169.344,128.656z" style="fill: rgb(75, 75, 75);"></path>
</g>
</svg>
