<?xml version="1.0" encoding="utf-8"?>
<!-- Generator: Adobe Illustrator 15.1.0, SVG Export Plug-In . SVG Version: 6.00 Build 0)  -->
<!DOCTYPE svg PUBLIC "-//W3C//DTD SVG 1.1//EN" "http://www.w3.org/Graphics/SVG/1.1/DTD/svg11.dtd">
<svg version="1.1" id="_x32_" xmlns="http://www.w3.org/2000/svg" xmlns:xlink="http://www.w3.org/1999/xlink" x="0px" y="0px"
	 width="512px" height="512px" viewBox="0 0 512 512" style="enable-background:new 0 0 512 512;" xml:space="preserve">
<style type="text/css">
<![CDATA[
	.st0{fill:#4B4B4B;}
]]>
</style>
<g>
	<path class="st0" d="M223.546,83.775c59.344,10.281,195.891,87.547,177.641,144l-5.219,24.469c0,0,24.719,73.516,116.031,70.938
		c-18.266,59.016-68.375,76.859-129.734,80.422c-92.688-5.328-80.125-31.844-80.125-31.844s76.469-40.625-160.766-67.328
		L223.546,83.775z"/>
	<path class="st0" d="M24.031,486.275c-2.797,0-5.625-0.484-8.391-1.516c-12.422-4.625-18.75-18.453-14.125-30.891L155.156,41.354
		c4.641-12.438,18.5-18.719,30.875-14.125c12.438,4.625,18.766,18.453,14.125,30.891L46.531,470.635
		C42.937,480.307,33.765,486.275,24.031,486.275z"/>
</g>
</svg>
